<svg width="259" height="69" viewBox="0 0 259 69" fill="none" xmlns="http://www.w3.org/2000/svg">
<path d="M98.96 33.984C100.661 34.5413 102.011 35.48 103.008 36.8C104.005 38.0907 104.504 39.704 104.504 41.64C104.504 44.3093 103.477 46.3773 101.424 47.844C99.3707 49.2813 96.3787 50 92.448 50H77.136V19.2H91.568C95.2053 19.2 98.0067 19.9187 99.972 21.356C101.937 22.764 102.92 24.7147 102.92 27.208C102.92 28.7333 102.568 30.0827 101.864 31.256C101.16 32.4293 100.192 33.3387 98.96 33.984ZM82.856 23.688V32.18H90.952C92.9467 32.18 94.472 31.828 95.528 31.124C96.6133 30.3907 97.156 29.3347 97.156 27.956C97.156 26.548 96.6133 25.492 95.528 24.788C94.472 24.0547 92.9467 23.688 90.952 23.688H82.856ZM92.096 45.512C96.5253 45.512 98.74 44.0307 98.74 41.068C98.74 38.1053 96.5253 36.624 92.096 36.624H82.856V45.512H92.096ZM132.169 38.384C132.169 38.7653 132.139 39.308 132.081 40.012H113.645C113.967 41.7427 114.803 43.1213 116.153 44.148C117.531 45.1453 119.233 45.644 121.257 45.644C123.838 45.644 125.965 44.7933 127.637 43.092L130.585 46.48C129.529 47.7413 128.194 48.6947 126.581 49.34C124.967 49.9853 123.149 50.308 121.125 50.308C118.543 50.308 116.27 49.7947 114.305 48.768C112.339 47.7413 110.814 46.3187 109.729 44.5C108.673 42.652 108.145 40.5693 108.145 38.252C108.145 35.964 108.658 33.9107 109.685 32.092C110.741 30.244 112.193 28.8067 114.041 27.78C115.889 26.7533 117.971 26.24 120.289 26.24C122.577 26.24 124.615 26.7533 126.405 27.78C128.223 28.7773 129.631 30.2 130.629 32.048C131.655 33.8667 132.169 35.9787 132.169 38.384ZM120.289 30.64C118.529 30.64 117.033 31.168 115.801 32.224C114.598 33.2507 113.865 34.6293 113.601 36.36H126.933C126.698 34.6587 125.979 33.28 124.777 32.224C123.574 31.168 122.078 30.64 120.289 30.64ZM145.783 26.24C149.245 26.24 151.885 27.076 153.703 28.748C155.551 30.3907 156.475 32.884 156.475 36.228V50H151.283V47.14C150.609 48.1667 149.641 48.9587 148.379 49.516C147.147 50.044 145.651 50.308 143.891 50.308C142.131 50.308 140.591 50.0147 139.271 49.428C137.951 48.812 136.925 47.976 136.191 46.92C135.487 45.8347 135.135 44.6173 135.135 43.268C135.135 41.156 135.913 39.4693 137.467 38.208C139.051 36.9173 141.53 36.272 144.903 36.272H150.975V35.92C150.975 34.2773 150.477 33.016 149.479 32.136C148.511 31.256 147.059 30.816 145.123 30.816C143.803 30.816 142.498 31.0213 141.207 31.432C139.946 31.8427 138.875 32.4147 137.995 33.148L135.839 29.144C137.071 28.2053 138.553 27.4867 140.283 26.988C142.014 26.4893 143.847 26.24 145.783 26.24ZM145.035 46.304C146.414 46.304 147.631 45.996 148.687 45.38C149.773 44.7347 150.535 43.8253 150.975 42.652V39.924H145.299C142.131 39.924 140.547 40.9653 140.547 43.048C140.547 44.0453 140.943 44.8373 141.735 45.424C142.527 46.0107 143.627 46.304 145.035 46.304ZM177.658 48.724C177.012 49.252 176.22 49.648 175.282 49.912C174.372 50.176 173.404 50.308 172.378 50.308C169.796 50.308 167.802 49.6333 166.394 48.284C164.986 46.9347 164.282 44.9693 164.282 42.388V31.08H160.41V26.68H164.282V21.312H169.782V26.68H176.074V31.08H169.782V42.256C169.782 43.4 170.06 44.28 170.618 44.896C171.175 45.4827 171.982 45.776 173.038 45.776C174.27 45.776 175.296 45.4533 176.118 44.808L177.658 48.724ZM211.002 50L210.958 29.584L200.838 46.48H198.286L188.166 29.848V50H182.71V19.2H187.418L199.65 39.616L211.662 19.2H216.37L216.414 50H211.002ZM224.206 26.504H229.706V50H224.206V26.504ZM226.978 22.632C225.98 22.632 225.144 22.324 224.47 21.708C223.795 21.0627 223.458 20.2707 223.458 19.332C223.458 18.3933 223.795 17.616 224.47 17C225.144 16.3547 225.98 16.032 226.978 16.032C227.975 16.032 228.811 16.34 229.486 16.956C230.16 17.5427 230.498 18.2907 230.498 19.2C230.498 20.168 230.16 20.9893 229.486 21.664C228.84 22.3093 228.004 22.632 226.978 22.632ZM251.884 50L245.856 41.86L239.784 50H233.712L242.864 38.076L234.108 26.504H240.224L245.988 34.204L251.752 26.504H257.692L248.892 37.988L258.088 50H251.884Z" fill="#1DB954"/>
<path fill-rule="evenodd" clip-rule="evenodd" d="M33 67C51.2254 67 66 52.2254 66 34C66 15.7746 51.2254 1 33 1C14.7746 1 0 15.7746 0 34C0 52.2254 14.7746 67 33 67ZM55.6787 42.401C55.6787 42.2851 55.6249 42.175 55.5328 42.1051L46.3641 35.0541C46.2968 35.0029 46.2156 34.977 46.1355 34.977C46.0564 34.977 45.9772 35.0029 45.9105 35.0524C45.7765 35.1544 45.7269 35.3323 45.7879 35.489L47.2941 39.3011C42.087 39.0626 39.5446 37.3076 37.456 34.8517C37.0856 35.3421 36.7162 35.8546 36.3315 36.3921L36.3305 36.3934C35.5549 37.4741 34.7049 38.6586 33.6806 39.8272C36.4344 42.7047 40.3712 45.1844 47.3158 45.4456L45.7878 49.3125C45.7263 49.4692 45.7759 49.6471 45.9104 49.7491C46.0444 49.8505 46.2295 49.8494 46.3635 49.747L55.5328 42.6969C55.6249 42.627 55.6787 42.5169 55.6787 42.401ZM19.6328 32.6624C19.5523 32.6624 19.4718 32.6371 19.4044 32.5852L10.2348 25.5347C10.1433 25.4649 10.0892 25.3547 10.0892 25.2386C10.0892 25.1227 10.1427 25.0126 10.2348 24.9427L19.4051 17.8929C19.5386 17.7904 19.7237 17.7894 19.8579 17.8906C19.9919 17.9925 20.0421 18.1704 19.9803 18.3271L18.4435 22.2169C25.3912 22.5802 29.3309 25.089 32.0894 27.9788C31.0577 29.1566 30.2017 30.3491 29.4219 31.4363C29.0428 31.9655 28.6784 32.4704 28.313 32.9539C26.2192 30.4856 23.6699 28.6964 18.486 28.3659L19.9804 32.1503C20.0427 32.3071 19.9925 32.4855 19.858 32.5867C19.7918 32.6366 19.7116 32.6624 19.6328 32.6624ZM47.2816 28.3664C40.32 28.8102 38.1092 31.885 35.3704 35.7037C32.3679 39.8913 28.6551 45.0623 18.4521 45.4456L19.9798 49.3125C20.0421 49.4692 19.992 49.6471 19.8572 49.7491C19.7238 49.8505 19.5386 49.8494 19.4044 49.747L10.2348 42.6969C10.1433 42.627 10.0892 42.5169 10.0892 42.401C10.0892 42.2851 10.1427 42.175 10.2348 42.1051L19.4043 35.0541C19.4718 35.0029 19.5527 34.977 19.6327 34.977C19.712 34.977 19.7918 35.0029 19.8579 35.0524C19.9919 35.1544 20.0421 35.3323 19.9803 35.489L18.4743 39.3011C25.459 38.9815 27.6504 35.9328 30.3807 32.1248C33.3939 27.9236 37.1093 22.7519 47.3251 22.2168L45.7878 18.3271C45.7263 18.1703 45.7759 17.9924 45.9104 17.8905C46.0444 17.7893 46.2295 17.7904 46.3635 17.8928L55.5328 24.9432C55.6249 25.013 55.6787 25.1232 55.6787 25.239C55.6787 25.3552 55.6249 25.4653 55.5328 25.5352L46.3635 32.5856C46.2958 32.6371 46.2151 32.663 46.1355 32.663C46.0558 32.663 45.9772 32.6371 45.91 32.5872C45.7759 32.4855 45.7263 32.3076 45.7878 32.1509L47.2816 28.3664Z" fill="#1DB954"/>
</svg>
