<svg width="243" height="69" viewBox="0 0 243 69" fill="none" xmlns="http://www.w3.org/2000/svg">
<path d="M82.856 23.996V33.368H97.728V38.208H82.856V50H77.136V19.2H99.62V23.996H82.856ZM126.727 26.504V50H121.491V47.008C120.611 48.064 119.511 48.8853 118.191 49.472C116.871 50.0293 115.448 50.308 113.923 50.308C110.784 50.308 108.306 49.4427 106.487 47.712C104.698 45.952 103.803 43.356 103.803 39.924V26.504H109.303V39.176C109.303 41.288 109.772 42.872 110.711 43.928C111.679 44.9547 113.043 45.468 114.803 45.468C116.768 45.468 118.323 44.8667 119.467 43.664C120.64 42.432 121.227 40.672 121.227 38.384V26.504H126.727ZM141.188 50.308C139.282 50.308 137.419 50.0587 135.6 49.56C133.782 49.0613 132.33 48.4307 131.244 47.668L133.356 43.488C134.412 44.192 135.674 44.764 137.14 45.204C138.636 45.6147 140.103 45.82 141.54 45.82C144.826 45.82 146.468 44.9547 146.468 43.224C146.468 42.4027 146.043 41.8307 145.192 41.508C144.371 41.1853 143.036 40.8773 141.188 40.584C139.252 40.2907 137.668 39.9533 136.436 39.572C135.234 39.1907 134.178 38.5307 133.268 37.592C132.388 36.624 131.948 35.2893 131.948 33.588C131.948 31.3587 132.872 29.584 134.72 28.264C136.598 26.9147 139.12 26.24 142.288 26.24C143.902 26.24 145.515 26.4307 147.128 26.812C148.742 27.164 150.062 27.648 151.088 28.264L148.976 32.444C146.982 31.2707 144.738 30.684 142.244 30.684C140.631 30.684 139.399 30.9333 138.548 31.432C137.727 31.9013 137.316 32.532 137.316 33.324C137.316 34.204 137.756 34.8347 138.636 35.216C139.546 35.568 140.939 35.9053 142.816 36.228C144.694 36.5213 146.234 36.8587 147.436 37.24C148.639 37.6213 149.666 38.2667 150.516 39.176C151.396 40.0853 151.836 41.376 151.836 43.048C151.836 45.248 150.883 47.008 148.976 48.328C147.07 49.648 144.474 50.308 141.188 50.308ZM156.573 26.504H162.073V50H156.573V26.504ZM159.345 22.632C158.348 22.632 157.512 22.324 156.837 21.708C156.162 21.0627 155.825 20.2707 155.825 19.332C155.825 18.3933 156.162 17.616 156.837 17C157.512 16.3547 158.348 16.032 159.345 16.032C160.342 16.032 161.178 16.34 161.853 16.956C162.528 17.5427 162.865 18.2907 162.865 19.2C162.865 20.168 162.528 20.9893 161.853 21.664C161.208 22.3093 160.372 22.632 159.345 22.632ZM178.84 21.488C176.522 21.488 175.364 22.7493 175.364 25.272V26.68H181.832V31.08H175.54V50H170.04V31.08H166.168V26.68H170.04V25.184C170.04 22.6613 170.773 20.6813 172.24 19.244C173.706 17.7773 175.774 17.044 178.444 17.044C180.556 17.044 182.213 17.4693 183.416 18.32L181.876 22.456C180.937 21.8107 179.925 21.488 178.84 21.488ZM207.963 26.504L196.963 51.892C195.937 54.444 194.69 56.2333 193.223 57.26C191.757 58.316 189.982 58.844 187.899 58.844C186.726 58.844 185.567 58.6533 184.423 58.272C183.279 57.8907 182.341 57.3627 181.607 56.688L183.807 52.64C184.335 53.1387 184.951 53.5347 185.655 53.828C186.389 54.1213 187.122 54.268 187.855 54.268C188.823 54.268 189.615 54.0187 190.231 53.52C190.877 53.0213 191.463 52.1853 191.991 51.012L192.387 50.088L182.135 26.504H187.855L195.247 43.884L202.683 26.504H207.963Z" fill="#1DB954"/>
<path fill-rule="evenodd" clip-rule="evenodd" d="M33 67C51.2254 67 66 52.2254 66 34C66 15.7746 51.2254 1 33 1C14.7746 1 0 15.7746 0 34C0 52.2254 14.7746 67 33 67ZM55.6787 42.401C55.6787 42.2851 55.6249 42.175 55.5328 42.1051L46.3641 35.0541C46.2968 35.0029 46.2156 34.977 46.1355 34.977C46.0564 34.977 45.9772 35.0029 45.9105 35.0524C45.7765 35.1544 45.7269 35.3323 45.7879 35.489L47.2941 39.3011C42.087 39.0626 39.5446 37.3076 37.456 34.8517C37.0856 35.3421 36.7162 35.8546 36.3315 36.3921L36.3305 36.3934C35.5549 37.4741 34.7049 38.6586 33.6806 39.8272C36.4344 42.7047 40.3712 45.1844 47.3158 45.4456L45.7878 49.3125C45.7263 49.4692 45.7759 49.6471 45.9104 49.7491C46.0444 49.8505 46.2295 49.8494 46.3635 49.747L55.5328 42.6969C55.6249 42.627 55.6787 42.5169 55.6787 42.401ZM19.6328 32.6624C19.5523 32.6624 19.4718 32.6371 19.4044 32.5852L10.2348 25.5347C10.1433 25.4649 10.0892 25.3547 10.0892 25.2386C10.0892 25.1227 10.1427 25.0126 10.2348 24.9427L19.4051 17.8929C19.5386 17.7904 19.7237 17.7894 19.8579 17.8906C19.9919 17.9925 20.0421 18.1704 19.9803 18.3271L18.4435 22.2169C25.3912 22.5802 29.3309 25.089 32.0894 27.9788C31.0577 29.1566 30.2017 30.3491 29.4219 31.4363C29.0428 31.9655 28.6784 32.4704 28.313 32.9539C26.2192 30.4856 23.6699 28.6964 18.486 28.3659L19.9804 32.1503C20.0427 32.3071 19.9925 32.4855 19.858 32.5867C19.7918 32.6366 19.7116 32.6624 19.6328 32.6624ZM47.2816 28.3664C40.32 28.8102 38.1092 31.885 35.3704 35.7037C32.3679 39.8913 28.6551 45.0623 18.4521 45.4456L19.9798 49.3125C20.0421 49.4692 19.992 49.6471 19.8572 49.7491C19.7238 49.8505 19.5386 49.8494 19.4044 49.747L10.2348 42.6969C10.1433 42.627 10.0892 42.5169 10.0892 42.401C10.0892 42.2851 10.1427 42.175 10.2348 42.1051L19.4043 35.0541C19.4718 35.0029 19.5527 34.977 19.6327 34.977C19.712 34.977 19.7918 35.0029 19.8579 35.0524C19.9919 35.1544 20.0421 35.3323 19.9803 35.489L18.4743 39.3011C25.459 38.9815 27.6504 35.9328 30.3807 32.1248C33.3939 27.9236 37.1093 22.7519 47.3251 22.2168L45.7878 18.3271C45.7263 18.1703 45.7759 17.9924 45.9104 17.8905C46.0444 17.7893 46.2295 17.7904 46.3635 17.8928L55.5328 24.9432C55.6249 25.013 55.6787 25.1232 55.6787 25.239C55.6787 25.3552 55.6249 25.4653 55.5328 25.5352L46.3635 32.5856C46.2958 32.6371 46.2151 32.663 46.1355 32.663C46.0558 32.663 45.9772 32.6371 45.91 32.5872C45.7759 32.4855 45.7263 32.3076 45.7878 32.1509L47.2816 28.3664Z" fill="#1DB954"/>
</svg>
